Coordinates
version=1
nRows=24
nColumns=24
inDegrees=yes

Units are S.I. units (second, meters, Newtons, ...)
Angles are in degrees.

endheader
time	pelvis_tilt	pelvis_list	pelvis_rotation	pelvis_tx	pelvis_ty	pelvis_tz	hip_flexion_r	hip_adduction_r	hip_rotation_r	knee_angle_r	ankle_angle_r	subtalar_angle_r	mtp_angle_r	hip_flexion_l	hip_adduction_l	hip_rotation_l	knee_angle_l	ankle_angle_l	subtalar_angle_l	mtp_angle_l	lumbar_extension	lumbar_bending	lumbar_rotation
      1.47500000	      6.94118877	     -0.37383656	      0.91102960	     -0.13631286	      0.91580142	     -0.01171143	     22.63974738	     -0.79410570	     -7.64882735	    -33.09461589	     17.92350214	     -3.11922910	     35.88878305	    -21.50664610	      3.24276491	     -4.78151537	      0.80420189	     17.52655862	      6.29681455	     25.13107264	    -18.77794347	     -2.49180929	     -7.47037724
      1.48000000	      6.96561080	     -0.35742082	      1.20095671	     -0.12915154	      0.91504226	     -0.01174217	     22.39545116	     -0.83137478	     -8.01182353	    -30.74986262	     17.94409806	     -2.45205410	     36.06327559	    -22.01780372	      3.11317557	     -4.85915730	      0.79566595	     17.71781130	      6.90544332	     25.23527090	    -18.83425681	     -2.47435374	     -7.82158409
      1.48500000	      7.03908344	     -0.36079139	      1.47299685	     -0.12189029	      0.91432743	     -0.01171322	     22.04851335	     -0.83250501	     -8.39186437	    -28.37192513	     17.91979368	     -1.76699592	     36.31323937	    -22.58646890	      2.96090812	     -5.01176700	      0.78626119	     17.84350879	      7.54122247	     25.35656869	    -18.93614019	     -2.44151536	     -8.12958001
      1.49000000	      7.05360381	     -0.33703908	      1.79031053	     -0.11461073	      0.91350985	     -0.01168587	     21.73632298	     -0.86383697	     -8.78681129	    -26.01393115	     17.88102570	     -1.09536700	     36.52339885	    -23.06159217	      2.80239897	     -5.02951771	      0.72021259	     18.04900311	      8.16715938	     25.49284319	    -18.97231994	     -2.43425850	     -8.48025855
      1.49500000	      7.17519690	     -0.35007143	      2.05658476	     -0.10716895	      0.91283935	     -0.01158670	     21.25682282	     -0.82972511	     -9.19038091	    -23.63539144	     17.73154883	     -0.39899356	     36.89065093	    -23.67317277	      2.62149354	     -5.20469539	      0.67663576	     18.12859792	      8.82751557	     25.67694334	    -19.10881163	     -2.39417538	     -8.76221598
      1.50000000	      7.22316775	     -0.32763918	      2.38994838	     -0.09971003	      0.91204401	     -0.01150008	     20.83902787	     -0.83864074	     -9.62091486	    -21.32388048	     17.62362515	      0.20503378	     37.16104535	    -24.15789756	      2.43357263	     -5.24341085	      0.54332879	     18.29541666	      9.46461474	     25.86580103	    -19.16643287	     -2.38390682	     -9.14344410
      1.50500000	      7.29673836	     -0.33097275	      2.71113217	     -0.09213779	      0.91127230	     -0.01137588	     20.36580139	     -0.80443755	    -10.05704031	    -19.05938487	     17.42257007	      0.75944205	     37.41092026	    -24.67545794	      2.21384626	     -5.29727960	      0.41216246	     18.42615820	     10.10103560	     26.07459011	    -19.23912202	     -2.34769403	     -9.47354436
      1.51000000	      7.40755120	     -0.33333317	      3.01765245	     -0.08446192	      0.91054422	     -0.01117901	     19.83361986	     -0.74825408	    -10.47382289	    -16.87127240	     17.18095074	      1.24272479	     37.67468578	    -25.22832045	      1.98782229	     -5.38332062	      0.26173460	     18.51879160	     10.73903907	     26.32260279	    -19.34261004	     -2.31910091	     -9.78291803
      1.51500000	      7.56509776	     -0.34912540	      3.25969343	     -0.07667998	      0.90985501	     -0.01084431	     19.24686731	     -0.63827651	    -10.82278929	    -14.77666655	     16.77749637	      1.54775590	     38.87342687	    -25.82485874	      1.76126017	     -5.60310371	      0.08678085	     18.50584130	     11.43468263	     27.28232383	    -19.48453819	     -2.29722673	     -9.97952738
      1.52000000	      7.65392289	     -0.34902186	      3.62043307	     -0.06885195	      0.90909447	     -0.01062606	     18.72185716	     -0.57325706	    -11.24495436	    -12.83152306	     16.53199298	      1.78100884	     38.90175374	    -26.32125588	      1.48875354	     -5.53201514	     -0.12780120	     18.57980735	     11.93667906	     27.45344413	    -19.55130199	     -2.26307351	    -10.34271408
      1.52500000	      7.85467427	     -0.37897141	      3.89908737	     -0.06088025	      0.90847699	     -0.01028927	     18.08318341	     -0.43861342	    -11.62746620	    -11.03888109	     16.22327330	      2.01639797	     38.99490690	    -26.93547778	      1.20829781	     -5.67561523	     -0.37075215	     18.58168882	     12.57839527	     27.79228047	    -19.72191968	     -2.21126036	    -10.55957911
      1.53000000	      8.01284056	     -0.42554322	      4.18744707	     -0.05282485	      0.90779534	     -0.00993154	     17.50565552	     -0.27874877	    -11.96777330	     -9.42851303	     15.91478179	      2.03940604	     39.09904095	    -27.49289378	      0.89555548	     -5.74893125	     -0.63275638	     18.58661991	     13.19746607	     28.28116786	    -19.83385420	     -2.14145185	    -10.76266861
      1.53500000	      8.16531044	     -0.48016030	      4.47297812	     -0.04469807	      0.90712979	     -0.00954138	     16.95521502	     -0.10196037	    -12.27409244	     -8.02125032	     15.62202118	      1.91157466	     39.17050539	    -28.01680032	      0.56625213	     -5.81126974	     -0.94679714	     18.55953808	     13.76190986	     28.88294488	    -19.93246682	     -2.06429428	    -10.96808130
      1.54000000	      8.20015351	     -0.50422553	      4.80114368	     -0.03658914	      0.90635052	     -0.00917333	     16.58163443	      0.02275470	    -12.56281623	     -6.87910559	     15.37141711	      1.57378160	     39.12071303	    -28.34185135	      0.24192670	     -5.72528061	     -1.39130890	     18.57273566	     14.18857691	     29.19903630	    -19.90755303	     -2.01939885	    -11.23321748
      1.54500000	      8.42619561	     -0.66008543	      5.02439065	     -0.02817683	      0.90579165	     -0.00870495	     15.99951640	      0.33136993	    -12.83749641	     -5.88786243	     15.15674562	      1.37813268	     39.18144729	    -28.93815207	     -0.17845994	     -5.98487713	     -1.72346352	     18.37022356	     14.85055654	     30.99945426	    -20.04451549	     -1.83740127	    -11.32898468
      1.55000000	      8.62609730	     -0.74843149	      5.28188019	     -0.01991242	      0.90527379	     -0.00827003	     15.48557660	      0.56368127	    -12.98873677	     -5.12963830	     14.90832493	      0.78650500	     39.04942790	    -29.43666198	     -0.55333511	     -5.96310953	     -2.17817750	     18.25552256	     15.17506683	     31.53944660	    -20.17776177	     -1.71862050	    -11.45901179
      1.55500000	      8.74554317	     -0.87754501	      5.55251038	     -0.01149590	      0.90467623	     -0.00785798	     15.10465686	      0.81761862	    -13.21176553	     -4.63398107	     14.80383024	      0.30682375	     38.79842653	    -29.81469300	     -0.98119946	     -5.99932644	     -2.68226170	     18.00332130	     15.63368302	     33.48575066	    -20.19973972	     -1.55639287	    -11.57817213
      1.56000000	      8.82120699	     -1.02547307	      5.85168537	     -0.00309314	      0.90407556	     -0.00751083	     14.80800021	      1.07526889	    -13.42524343	     -4.35347663	     14.63147922	     -0.32033639	     38.67671726	    -30.08431948	     -1.43895655	     -5.87395865	     -3.30489457	     17.95633387	     15.89023072	     33.67901485	    -20.17208062	     -1.36126391	    -11.73370053
      1.56500000	      9.11002309	     -1.24939278	      6.00946985	      0.00549048	      0.90373970	     -0.00696565	     14.27792398	      1.48487758	    -13.44449756	     -4.18362495	     14.46523075	     -1.08027619	     38.42013975	    -30.62030873	     -1.92938689	     -6.12623000	     -3.87605778	     17.69609089	     16.48642490	     34.68584283	    -20.35018303	     -1.10494930	    -11.64140947
      1.57000000	      9.18931057	     -1.42496523	      6.26512523	      0.01400951	      0.90323073	     -0.00657988	     14.04340174	      1.77265270	    -13.59885527	     -4.30246493	     14.34595189	     -1.66755319	     37.94251346	    -30.81962945	     -2.40765791	     -6.09363502	     -4.60633958	     17.27761856	     16.71012224	     37.44220402	    -20.31044487	     -0.88522303	    -11.73166825
      1.57500000	      9.34746826	     -1.63022042	      6.49161457	      0.02253879	      0.90285122	     -0.00616551	     13.74466910	      2.11121705	    -13.66926614	     -4.55892851	     14.11974028	     -2.45839662	     37.76363670	    -31.07285740	     -2.91285151	     -6.06657596	     -5.41092015	     17.05552572	     17.05145800	     37.97030528	    -20.35238260	     -0.62919316	    -11.75400371
      1.58000000	      9.41442863	     -1.87068699	      6.68323447	      0.03116977	      0.90238239	     -0.00572938	     13.57541265	      2.47482067	    -13.69930276	     -4.97766266	     13.96438748	     -3.10291651	     37.40863219	    -31.18159538	     -3.43101060	     -6.07778703	     -6.28381628	     16.59401357	     17.26705116	     40.54469823	    -20.27609099	     -0.35006553	    -11.69718807
      1.58500000	      9.52105951	     -2.11383993	      6.84923387	      0.03975562	      0.90199950	     -0.00523365	     13.38700356	      2.85707753	    -13.61669457	     -5.50683450	     13.69975565	     -3.95412545	     37.23348072	    -31.28188017	     -3.95174283	     -6.08148507	     -7.26046543	     16.26854659	     17.59955980	     41.33494415	    -20.24944214	     -0.07087798	    -11.63846036
      1.59000000	      9.53517513	     -2.35361501	      7.01808987	      0.04831510	      0.90157245	     -0.00478506	     13.34347926	      3.20310755	    -13.59649448	     -6.19426339	     13.38153081	     -4.57062465	     37.01629356	    -31.19753824	     -4.46040320	     -5.99962965	     -8.35795029	     15.74138306	     17.67798088	     44.01626005	    -20.12439367	      0.20404913	    -11.60740388
